<svg width="63" height="63" viewBox="0 0 63 63" fill="none" xmlns="http://www.w3.org/2000/svg">
<g clip-path="url(#clip0)">
<path d="M13.9062 0C8.98724 0.000959493 4.98552 4.00333 4.98552 8.92201V54.0783C4.98552 58.9973 8.98724 62.9997 13.9066 63.0003H56.0155C57.1196 63.0003 58.0145 62.1054 58.0145 61.0014V54.0783V47.1553V15.8451V1.99894C58.0145 0.894887 57.1196 0 56.0155 0H13.9062ZM13.9066 3.99789H54.0166V15.8451V45.156H13.9062C12.0874 45.1563 10.3951 45.7048 8.98341 46.6429V8.92201C8.98341 6.20728 11.1922 3.99821 13.9066 3.99789ZM54.0166 59.0021H13.9069C11.1922 59.0018 8.98341 56.7927 8.98341 54.078C8.98341 51.3633 11.1918 49.1542 13.9066 49.1539H54.0166V52.079H22.542C21.4379 52.079 20.5431 52.9739 20.5431 54.078C20.5431 55.182 21.4379 56.0769 22.542 56.0769H54.0166V59.0021Z" fill="white"/>
<path d="M23.5063 28.0492V35.6176C23.5063 36.7217 24.4012 37.6166 25.5052 37.6166H37.4944C38.5985 37.6166 39.4934 36.7217 39.4934 35.6176V28.0495C42.1345 26.9892 43.9652 24.3993 43.9652 21.4389C43.9652 17.6217 40.947 14.4966 37.172 14.3246C35.8412 12.5636 33.7677 11.5129 31.5001 11.5129C29.2316 11.5129 27.1584 12.5636 25.8279 14.3246C22.0527 14.4966 19.0344 17.622 19.0344 21.4389C19.0344 24.3996 20.8654 26.9892 23.5063 28.0492ZM26.1564 18.3151C26.3077 18.3151 26.4615 18.3263 26.6147 18.3487C27.4738 18.4757 28.314 18.0333 28.6975 17.2555C29.2287 16.1796 30.303 15.5108 31.5008 15.5108C32.6982 15.5108 33.7725 16.1796 34.3044 17.2561C34.6882 18.034 35.5323 18.475 36.3875 18.3487C36.5397 18.3263 36.6932 18.3151 36.8445 18.3151C38.5671 18.3151 39.9686 19.7166 39.9686 21.4392C39.9686 23.008 38.7971 24.3398 37.2437 24.5368C36.2452 24.6634 35.4964 25.5132 35.4964 26.5197V33.6187H27.5042V26.6518C27.5042 26.6496 27.5045 26.647 27.5045 26.6451C27.5707 25.5919 26.8066 24.6686 25.7598 24.5365C24.2048 24.3404 23.0323 23.0089 23.0323 21.4389C23.0323 19.7163 24.4338 18.3151 26.1564 18.3151Z" fill="white"/>
</g>
<defs>
<clipPath id="clip0">
<rect width="63" height="63" fill="white"/>
</clipPath>
</defs>
</svg>
