<?xml version="1.0" encoding="utf-8"?>
<!-- Generator: Adobe Illustrator 24.0.2, SVG Export Plug-In . SVG Version: 6.00 Build 0)  -->
<svg version="1.1" id="Layer_1" xmlns="http://www.w3.org/2000/svg" xmlns:xlink="http://www.w3.org/1999/xlink" x="0px" y="0px"
	 viewBox="0 0 63 63" style="enable-background:new 0 0 63 63;" xml:space="preserve">
<style type="text/css">
	.st0{clip-path:url(#SVGID_2_);}
	.st1{fill:#FFFFFF;}
	.st2{fill:#FFFFFF;stroke:#191918;stroke-miterlimit:10;}
</style>
<g>
	<defs>
		<rect id="SVGID_1_" width="63" height="63"/>
	</defs>
	<use xlink:href="#SVGID_1_"  style="overflow:visible;"/>
	<clipPath id="SVGID_2_">
		<use xlink:href="#SVGID_1_"  style="overflow:visible;"/>
	</clipPath>
	<g class="st0">
		<path class="st1" d="M13.9,0C9,0,5,4,5,8.9v45.2C5,59,9,63,13.9,63H56c1.1,0,2-0.9,2-2v-6.9v-6.9V15.8V2c0-1.1-0.9-2-2-2H13.9z
			 M13.9,4H54v11.8v29.3H13.9c-1.8,0-3.5,0.5-4.9,1.5V8.9C9,6.2,11.2,4,13.9,4z M54,59H13.9C11.2,59,9,56.8,9,54.1
			c0-2.7,2.2-4.9,4.9-4.9H54v2.9H22.5c-1.1,0-2,0.9-2,2c0,1.1,0.9,2,2,2H54V59z"/>
		<path class="st2" d="M23.5,28v7.6c0,1.1,0.9,2,2,2h12c1.1,0,2-0.9,2-2V28c2.6-1.1,4.5-3.7,4.5-6.6c0-3.8-3-6.9-6.8-7.1
			c-1.3-1.8-3.4-2.8-5.7-2.8c-2.3,0-4.3,1.1-5.7,2.8c-3.8,0.2-6.8,3.3-6.8,7.1C19,24.4,20.9,27,23.5,28z M26.2,18.3
			c0.2,0,0.3,0,0.5,0c0.9,0.1,1.7-0.3,2.1-1.1c0.5-1.1,1.6-1.7,2.8-1.7c1.2,0,2.3,0.7,2.8,1.7c0.4,0.8,1.2,1.2,2.1,1.1
			c0.2,0,0.3,0,0.5,0c1.7,0,3.1,1.4,3.1,3.1c0,1.6-1.2,2.9-2.7,3.1c-1,0.1-1.7,1-1.7,2v7.1h-8v-7c0,0,0,0,0,0c0.1-1.1-0.7-2-1.7-2.1
			C24.2,24.3,23,23,23,21.4C23,19.7,24.4,18.3,26.2,18.3z"/>
	</g>
</g>
</svg>
